<svg xmlns="http://www.w3.org/2000/svg" viewBox="0 0 64 64">
  <rect width="64" height="64" rx="18" fill="#059669"/>
  <path fill="#fff" d="M27 12a2 2 0 0 1 1.92 1.45l2.17 7.61a10 10 0 0 0 6.85 6.85l7.61 2.17a2 2 0 0 1 0 3.84l-7.61 2.17a10 10 0 0 0-6.85 6.85l-2.17 7.61a2 2 0 0 1-3.84 0l-2.17-7.61a10 10 0 0 0-6.85-6.85l-7.61-2.17a2 2 0 0 1 0-3.84l7.61-2.17a10 10 0 0 0 6.85-6.85l2.17-7.61A2 2 0 0 1 27 12Zm23-4a2 2 0 0 1 1.94 1.52l.69 2.76a7 7 0 0 0 5.09 5.09l2.76.69a2 2 0 0 1 0 3.88l-2.76.69a7 7 0 0 0-5.09 5.09l-.69 2.76a2 2 0 0 1-3.88 0l-.69-2.76a7 7 0 0 0-5.09-5.09l-2.76-.69a2 2 0 0 1 0-3.88l2.76-.69a7 7 0 0 0 5.09-5.09l.69-2.76A2 2 0 0 1 50 8Zm-5 36a2 2 0 0 1 1.9 1.37l1.05 3.15a4 4 0 0 0 2.53 2.53l3.15 1.05a2 2 0 0 1 0 3.8l-3.15 1.05a4 4 0 0 0-2.53 2.53l-1.05 3.15a2 2 0 0 1-3.8 0l-1.05-3.15a4 4 0 0 0-2.53-2.53l-3.15-1.05a2 2 0 0 1 0-3.8l3.15-1.05a4 4 0 0 0 2.53-2.53l1.05-3.15A2 2 0 0 1 45 44Z"/>
</svg>
