<svg width="322" height="322" viewBox="0 0 322 322" fill="none" xmlns="http://www.w3.org/2000/svg">
<path fill-rule="evenodd" clip-rule="evenodd" d="M175.905 37.662L204.905 61.162C215.405 54.162 240.605 39.662 257.405 37.662C269.739 33.662 292.705 32.162 285.905 58.162C284.739 64.662 281.005 80.662 275.405 92.662C272.072 99.662 264.505 114.262 260.905 116.662C257.072 120.662 246.005 124.862 232.405 109.662L190.405 69.662L144.905 35.662C118.239 19.162 58.3054 -10.338 31.9054 3.66196C12.4054 10.3286 -18.3946 40.0619 14.4054 105.662C21.4057 117.162 35.5062 141.862 35.9062 148.662C37.9062 156.829 39.3062 176.162 28.9062 188.162C18.9062 206.329 -0.59375 248.462 1.40625 271.662C1.40625 278.495 2.90625 293.662 8.90625 299.662C13.0729 307.329 28.0063 322.462 54.4062 321.662C63.4062 321.662 87.3062 318.462 110.906 305.662C124.406 299.162 159.806 278.862 193.406 249.662L226.406 218.662C235.906 205.662 254.906 186.662 269.406 218.662C278.906 234.829 294.506 270.662 280.906 284.662C275.573 288.495 252.906 289.362 204.906 262.162L175.906 284.662C193.906 296.329 235.806 319.762 259.406 320.162C283.406 323.495 329.306 315.962 320.906 259.162C319.573 249.662 313.306 224.362 298.906 199.162C289.406 184.162 274.906 158.262 292.906 134.662C305.406 114.162 328.306 65.4619 319.906 34.6619C317.406 22.8285 303.806 -0.538135 269.406 0.661865C260.406 1.16187 236.506 4.86187 212.906 15.6619L175.905 37.662ZM148.406 103.162L118.906 82.6619L89.9062 109.662C69.5063 135.662 53.4062 109.162 47.9062 92.662C38.3062 73.462 35.9062 58.6619 35.9062 53.6619C33.1063 36.4619 45.0729 34.4953 51.4062 35.662C67.0069 34.062 94.9065 46.9952 106.906 53.6619L151.406 82.6619L190.405 116.662C238.405 157.462 204.406 197.995 181.406 213.162L134.406 251.162C113.606 265.962 85.0729 278.329 73.4062 282.662C30.6063 297.062 32.5729 269.995 38.9062 254.662C41.3063 239.462 50.2396 222.662 54.4062 216.162C64.8062 192.562 81.4062 201.995 88.4062 209.662L118.906 240.662L148.406 218.662L124.406 195.662C105.206 180.462 107.406 156.329 110.906 146.162C114.506 130.162 137.406 110.829 148.406 103.162Z" fill="white"/>
</svg>
